{
    "asset" : {
        "generator" : "Khronos glTF Blender I/O v1.8.19",
        "version" : "2.0"
    },
    "scene" : 0,
    "scenes" : [
        {
            "name" : "Scene",
            "nodes" : [
                0
            ]
        }
    ],
    "nodes" : [
        {
            "mesh" : 0,
            "name" : "Cylinder",
            "translation" : [
                0,
                1.0092581510543823,
                0
            ]
        }
    ],
    "meshes" : [
        {
            "name" : "Cylinder",
            "primitives" : [
                {
                    "attributes" : {
                        "POSITION" : 0,
                        "NORMAL" : 1,
                        "TEXCOORD_0" : 2
                    },
                    "indices" : 3
                }
            ]
        }
    ],
    "accessors" : [
        {
            "bufferView" : 0,
            "componentType" : 5126,
            "count" : 280,
            "max" : [
                1.9277470111846924,
                2.034304141998291,
                2.225970506668091
            ],
            "min" : [
                -1.9277470111846924,
                -4.192887306213379,
                -2.225970506668091
            ],
            "type" : "VEC3"
        },
        {
            "bufferView" : 1,
            "componentType" : 5126,
            "count" : 280,
            "type" : "VEC3"
        },
        {
            "bufferView" : 2,
            "componentType" : 5126,
            "count" : 280,
            "type" : "VEC2"
        },
        {
            "bufferView" : 3,
            "componentType" : 5123,
            "count" : 492,
            "type" : "SCALAR"
        }
    ],
    "bufferViews" : [
        {
            "buffer" : 0,
            "byteLength" : 3360,
            "byteOffset" : 0
        },
        {
            "buffer" : 0,
            "byteLength" : 3360,
            "byteOffset" : 3360
        },
        {
            "buffer" : 0,
            "byteLength" : 2240,
            "byteOffset" : 6720
        },
        {
            "buffer" : 0,
            "byteLength" : 984,
            "byteOffset" : 8960
        }
    ],
    "buffers" : [
        {
            "byteLength" : 9944,
            "uri" : "data:application/octet-stream;base64,"
        }
    ]
}
